<svg width="61" height="77" viewBox="0 0 61 77" fill="none" xmlns="http://www.w3.org/2000/svg">
<path d="M2.55644 63.4356H1.66602V55.0937H2.55644V63.4356Z" fill="white"/>
<path d="M11.1352 63.4356H10.2917L5.86302 56.7457V63.4356H4.9726V55.0937H5.81615L10.2448 61.7602V55.0937H11.1352V63.4356Z" fill="white"/>
<path d="M19.0485 61.0221C18.7556 62.5803 17.6543 63.5059 16.1547 63.5059C15.2877 63.5059 14.5847 63.2012 14.0692 62.6857C13.2842 61.9008 13.2374 61.1744 13.2374 59.2646C13.2374 57.3549 13.2842 56.6285 14.0692 55.8436C14.5847 55.3281 15.2877 55.0234 16.1547 55.0234C17.666 55.0234 18.7556 55.949 19.0485 57.5072H18.1347C17.9121 56.4762 17.1974 55.8201 16.1547 55.8201C15.5923 55.8201 15.1002 56.0193 14.7136 56.4059C14.1864 56.9449 14.1278 57.5541 14.1278 59.2646C14.1278 60.9752 14.1864 61.5844 14.7136 62.1234C15.1002 62.51 15.5923 62.7092 16.1547 62.7092C17.1974 62.7092 17.9355 62.0531 18.1581 61.0221H19.0485Z" fill="white"/>
<path d="M26.192 63.4356H21.0135V55.0937H26.192V55.8904H21.9039V58.8312H25.5593V59.6278H21.9039V62.6389H26.192V63.4356Z" fill="white"/>
<path d="M33.7209 57.5424C33.7209 59.0303 32.6547 60.0028 31.1433 60.0028H28.929V63.4356H28.0386V55.0937H31.1433C32.6547 55.0937 33.7209 56.0544 33.7209 57.5424ZM32.8304 57.5424C32.8304 56.4411 32.1158 55.8904 31.073 55.8904H28.929V59.2061H31.073C32.1158 59.2061 32.8304 58.6437 32.8304 57.5424Z" fill="white"/>
<path d="M40.2233 55.8904H37.8098V63.4356H36.9193V55.8904H34.5058V55.0937H40.2233V55.8904Z" fill="white"/>
<path d="M42.6702 63.4356H41.7798V55.0937H42.6702V63.4356Z" fill="white"/>
<path d="M50.6046 59.2646C50.6046 61.1744 50.546 61.9008 49.761 62.6857C49.2455 63.2012 48.5543 63.5059 47.6873 63.5059C46.8203 63.5059 46.1173 63.2012 45.6018 62.6857C44.8169 61.9008 44.77 61.1744 44.77 59.2646C44.77 57.3549 44.8169 56.6285 45.6018 55.8436C46.1173 55.3281 46.8203 55.0234 47.6873 55.0234C48.5543 55.0234 49.2455 55.3281 49.761 55.8436C50.546 56.6285 50.6046 57.3549 50.6046 59.2646ZM49.7142 59.2646C49.7142 57.5541 49.6556 56.9449 49.1284 56.4059C48.7417 56.0193 48.2497 55.8201 47.6873 55.8201C47.1249 55.8201 46.6329 56.0193 46.2462 56.4059C45.719 56.9449 45.6604 57.5541 45.6604 59.2646C45.6604 60.9752 45.719 61.5844 46.2462 62.1234C46.6329 62.51 47.1249 62.7092 47.6873 62.7092C48.2497 62.7092 48.7417 62.51 49.1284 62.1234C49.6556 61.5844 49.7142 60.9752 49.7142 59.2646Z" fill="white"/>
<path d="M58.869 63.4356H58.0254L53.5968 56.7457V63.4356H52.7063V55.0937H53.5499L57.9786 61.7602V55.0937H58.869V63.4356Z" fill="white"/>
<path d="M9.88258 70.3151C9.88258 71.8031 8.81642 72.7755 7.30505 72.7755H5.09072V76.2083H4.2003V67.8665H7.30505C8.81642 67.8665 9.88258 68.8272 9.88258 70.3151ZM8.99216 70.3151C8.99216 69.2138 8.27748 68.6632 7.23475 68.6632H5.09072V71.9788H7.23475C8.27748 71.9788 8.99216 71.4164 8.99216 70.3151Z" fill="white"/>
<path d="M17.4146 76.2083H16.3719L14.4739 72.506H12.4705V76.2083H11.58V67.8665H14.7785C16.2313 67.8665 17.2506 68.7452 17.2506 70.1863C17.2506 71.4047 16.5125 72.2014 15.4346 72.424L17.4146 76.2083ZM16.3602 70.198C16.3602 69.1787 15.6689 68.6632 14.6965 68.6632H12.4705V71.7211H14.6965C15.6689 71.7211 16.3602 71.2173 16.3602 70.198Z" fill="white"/>
<path d="M24.7297 72.0374C24.7297 73.9471 24.6712 74.6735 23.8862 75.4585C23.3707 75.974 22.6794 76.2786 21.8124 76.2786C20.9455 76.2786 20.2425 75.974 19.727 75.4585C18.942 74.6735 18.8952 73.9471 18.8952 72.0374C18.8952 70.1277 18.942 69.4013 19.727 68.6163C20.2425 68.1008 20.9455 67.7962 21.8124 67.7962C22.6794 67.7962 23.3707 68.1008 23.8862 68.6163C24.6712 69.4013 24.7297 70.1277 24.7297 72.0374ZM23.8393 72.0374C23.8393 70.3268 23.7807 69.7176 23.2535 69.1787C22.8669 68.792 22.3748 68.5929 21.8124 68.5929C21.2501 68.5929 20.758 68.792 20.3714 69.1787C19.8442 69.7176 19.7856 70.3268 19.7856 72.0374C19.7856 73.7479 19.8442 74.3572 20.3714 74.8961C20.758 75.2827 21.2501 75.4819 21.8124 75.4819C22.3748 75.4819 22.8669 75.2827 23.2535 74.8961C23.7807 74.3572 23.8393 73.7479 23.8393 72.0374Z" fill="white"/>
<path d="M32.2588 73.1738C32.2588 74.1346 32.083 74.7204 31.5441 75.3179C30.9583 75.9623 30.1733 76.2786 29.318 76.2786C28.4511 76.2786 27.7481 75.974 27.2326 75.4585C26.4476 74.6735 26.4007 73.9471 26.4007 72.0374C26.4007 70.1277 26.4476 69.4013 27.2326 68.6163C27.7481 68.1008 28.4511 67.7962 29.318 67.7962C30.888 67.7962 32.001 68.8506 32.2353 70.2917H31.3449C31.1106 69.2255 30.3608 68.5929 29.318 68.5929C28.744 68.5929 28.2519 68.792 27.877 69.1787C27.3497 69.7176 27.2912 70.3268 27.2912 72.0374C27.2912 73.7479 27.3497 74.3572 27.877 74.8961C28.2519 75.2827 28.744 75.4819 29.318 75.4819C29.9273 75.4819 30.5131 75.2359 30.8997 74.7672C31.2395 74.3455 31.3684 73.8885 31.3684 73.2559V72.6115H29.318V71.8499H32.2588V73.1738Z" fill="white"/>
<path d="M40.1717 76.2083H39.129L37.231 72.506H35.2275V76.2083H34.3371V67.8665H37.5356C38.9884 67.8665 40.0077 68.7452 40.0077 70.1863C40.0077 71.4047 39.2696 72.2014 38.1917 72.424L40.1717 76.2083ZM39.1172 70.198C39.1172 69.1787 38.426 68.6632 37.4536 68.6632H35.2275V71.7211H37.4536C38.426 71.7211 39.1172 71.2173 39.1172 70.198Z" fill="white"/>
<path d="M47.8369 76.2083H46.8879L46.2201 74.322H42.5764L41.9086 76.2083H40.9596L44.0292 67.8665H44.779L47.8369 76.2083ZM45.9623 73.5488L44.4158 69.1435L42.8459 73.5488H45.9623Z" fill="white"/>
<path d="M56.3349 76.2083H55.4445V69.8699L53.1598 74.8961H52.3983L50.0785 69.8699V76.2083H49.1881V67.8665H50.0785L52.7966 73.7831L55.4445 67.8665H56.3349V76.2083Z" fill="white"/>
<g clip-path="url(#clip0_1412_36771)">
<path d="M59.3487 44.3196V44.0746H59.5053C59.5918 44.0746 59.7079 44.0801 59.7079 44.1851C59.7079 44.2975 59.6471 44.3178 59.5476 44.3178H59.3487M59.3487 44.489H59.4537L59.6968 44.9164H59.9639L59.695 44.4706C59.835 44.4596 59.9492 44.3951 59.9492 44.2072C59.9492 43.9733 59.7889 43.8996 59.5163 43.8996H59.1222V44.9164H59.3487V44.489ZM60.4925 44.4098C60.4925 43.8131 60.0284 43.4668 59.5108 43.4668C58.9932 43.4668 58.5254 43.8131 58.5254 44.4098C58.5254 45.0066 58.9895 45.3547 59.5108 45.3547C60.0321 45.3547 60.4925 45.0066 60.4925 44.4098ZM60.2089 44.4098C60.2089 44.8445 59.8884 45.1374 59.5108 45.1374V45.1337C59.1222 45.1374 58.8072 44.8445 58.8072 44.4098C58.8072 43.9752 59.1222 43.6841 59.5108 43.6841C59.8994 43.6841 60.2089 43.9752 60.2089 44.4098Z" fill="white"/>
<path d="M24.4835 34.3038V45.022H27.5106V34.3038H24.4835ZM0.671875 34.2891V45.022H3.72659V36.8724H6.09266C6.87705 36.8724 7.43496 37.0676 7.81243 37.4708C8.29117 37.9809 8.48634 38.8039 8.48634 40.3083V45.0201H11.4453V39.0912C11.4453 34.858 8.74781 34.2891 6.10923 34.2891H0.671875ZM29.3575 34.3038V45.022H34.2664C36.8828 45.022 37.7354 44.5874 38.6597 43.6116C39.3115 42.9266 39.735 41.4241 39.735 39.7817C39.735 38.2755 39.3778 36.9313 38.7554 36.0935C37.6341 34.5966 36.0193 34.3038 33.6072 34.3038H29.3593H29.3575ZM32.3606 36.6367H33.6624C35.5497 36.6367 36.7724 37.4856 36.7724 39.6841C36.7724 41.8826 35.5516 42.7333 33.6624 42.7333H32.3606V36.6367ZM20.1197 34.3038L17.5934 42.7977L15.1721 34.3038H11.9038L15.3617 45.022H19.7238L23.2075 34.3038H20.1178H20.1197ZM41.1436 45.022H44.1707V34.3038H41.1418V45.022H41.1436ZM49.6283 34.3075L45.4007 45.0183H48.3854L49.0538 43.1254H54.0566L54.69 45.0183H57.9307L53.6718 34.3075H49.6283ZM51.593 36.2611L53.4269 41.2786H49.702L51.593 36.2611Z" fill="white"/>
<path d="M20.4791 9.19831V6.62418C20.7295 6.60577 20.9817 6.59288 21.2395 6.58551C28.2825 6.36456 32.9023 12.636 32.9023 12.636C32.9023 12.636 27.9124 19.5667 22.5616 19.5667C21.7901 19.5667 21.1014 19.4433 20.4791 19.2334V11.4263C23.2207 11.7577 23.7713 12.9693 25.4211 15.7165L29.0871 12.625C29.0871 12.625 26.4117 9.11546 21.9005 9.11546C21.4089 9.11546 20.9412 9.15044 20.4809 9.20016M20.4809 0.695201V4.54167C20.7332 4.52142 20.9873 4.50485 21.2414 4.49564C31.0352 4.16605 37.4153 12.5274 37.4153 12.5274C37.4153 12.5274 30.0869 21.4393 22.4511 21.4393C21.7514 21.4393 21.0959 21.3748 20.4809 21.2662V23.6433C21.0075 23.7096 21.5525 23.7501 22.1215 23.7501C29.2271 23.7501 34.3643 20.1227 39.3413 15.827C40.1662 16.488 43.5431 18.0936 44.2373 18.7988C39.5052 22.7595 28.4813 25.9504 22.232 25.9504C21.6299 25.9504 21.0499 25.9136 20.4827 25.8602V29.2022H47.4872V0.693359H20.4791L20.4809 0.695201ZM20.4809 19.2352V21.2643C13.9093 20.0933 12.0864 13.2621 12.0864 13.2621C12.0864 13.2621 15.2406 9.76543 20.4809 9.20016V11.4263C20.4809 11.4263 20.4735 11.4263 20.4698 11.4263C17.7208 11.0967 15.572 13.6653 15.572 13.6653C15.572 13.6653 16.7762 17.9905 20.4809 19.2352ZM8.80891 12.9656C8.80891 12.9656 12.7032 7.21892 20.4809 6.62418V4.53983C11.8673 5.23032 4.4082 12.5255 4.4082 12.5255C4.4082 12.5255 8.63214 24.7389 20.4809 25.8565V23.6396C11.7863 22.5459 8.80891 12.9638 8.80891 12.9638V12.9656Z" fill="#95C11F"/>
</g>
<defs>
<clipPath id="clip0_1412_36771">
<rect width="59.8182" height="44.6644" fill="white" transform="translate(0.671875 0.693359)"/>
</clipPath>
</defs>
</svg>
